<?xml version="1.0"?>
<svg xmlns="http://www.w3.org/2000/svg" xmlns:xlink="http://www.w3.org/1999/xlink" version="1.1" id="Capa_1" x="0px" y="0px" viewBox="0 0 512 512" style="enable-background:new 0 0 512 512;" xml:space="preserve" width="512px" height="512px"><g><g>
	<g>
		<path d="M342.656,15.42c-53.952-20.512-119.392-20.512-173.312,0c-6.144,2.336-10.272,8.256-10.304,14.848    c-0.032,6.592,4,12.576,10.144,15.008c26.976,10.592,53.12,24.64,77.664,41.728c2.752,1.92,5.952,2.88,9.152,2.88    s6.4-0.96,9.152-2.88c24.576-17.12,50.72-31.168,77.664-41.76c6.144-2.4,10.176-8.352,10.144-14.976    C352.928,23.644,348.832,17.756,342.656,15.42z" data-original="#000000" class="active-path" data-old_color="#000000" fill="#FFFFFF"/>
	</g>
</g><g>
	<g>
		<path d="M62.343,422.783c-0.002,0.009-0.005,0.019-0.007,0.029c0.004-0.007,0.009-0.015,0.013-0.022    C62.347,422.788,62.345,422.785,62.343,422.783z" data-original="#000000" class="active-path" data-old_color="#000000" fill="#FFFFFF"/>
	</g>
</g><g>
	<g>
		<path d="M214.112,103.292C186.816,81.596,157.856,61.884,128,44.668c-5.344-3.072-11.968-2.784-17.088,0.672    C41.472,93.212,0,171.932,0,255.964c0,61.395,22.071,120.583,62.343,166.819c17.965-76.045,96.192-241.45,152.793-295.395    c3.36-3.2,5.152-7.68,4.96-12.288C219.904,110.492,217.728,106.172,214.112,103.292z" data-original="#000000" class="active-path" data-old_color="#000000" fill="#FFFFFF"/>
	</g>
</g><g>
	<g>
		<path d="M401.056,45.34c-5.088-3.488-11.648-3.776-17.056-0.672c-29.856,17.216-58.848,36.928-86.112,58.624    c-3.616,2.88-5.824,7.168-6.016,11.808c-0.224,4.64,1.6,9.12,4.928,12.288c56.576,53.92,135.04,219.168,152.992,295.232    c-39.04-65.984-125.984-221.28-182.912-274.368c-6.112-5.728-15.68-5.728-21.824,0C188.07,201.366,101.395,356.761,62.349,422.79    c0.006,0.007,0.013,0.015,0.019,0.022c48.16,56.64,118.72,89.152,193.632,89.152s145.472-32.512,193.824-89.344    C489.92,376.604,512,317.404,512,255.964C512,171.932,470.528,93.212,401.056,45.34z" data-original="#000000" class="active-path" data-old_color="#000000" fill="#FFFFFF"/>
	</g>
</g></g> </svg>
